<svg class="ldi-kbmzeh" width="100%" height="100%" xmlns="http://www.w3.org/2000/svg" xmlns:xlink="http://www.w3.org/1999/xlink" viewBox="0 0 100 100" preserveAspectRatio="xMidYMid"><!--?xml version="1.0" encoding="utf-8"?--><!--Generator: Adobe Illustrator 21.0.0, SVG Export Plug-In . SVG Version: 6.00 Build 0)--><svg version="1.1" id="Layer_1" xmlns="http://www.w3.org/2000/svg" xmlns:xlink="http://www.w3.org/1999/xlink" x="0px" y="0px" viewBox="0 0 100 100" style="transform-origin: 50px 50px 0px;" xml:space="preserve"><g style="transform-origin: 50px 50px 0px;"><g style="transform-origin: 50px 50px 0px; transform: scale(0.75);"><g style="transform-origin: 50px 50px 0px;"><g><style type="text/css" class="ld ld-cycle" style="transform-origin: 50px 50px 0px; animation-duration: 0.8s; animation-delay: -0.8s; animation-direction: normal;">.st0{fill:#F4E6C8;} .st1{opacity:0.8;fill:#849B87;} .st2{fill:#D65A62;} .st3{fill:#E15C64;} .st4{fill:#F47E5F;} .st5{fill:#F7B26A;} .st6{fill:#FEE8A2;} .st7{fill:#ACBD81;} .st8{fill:#F5E169;} .st9{fill:#F0AF6B;} .st10{fill:#EA7C60;} .st11{fill:#A8B980;} .st12{fill:#829985;} .st13{fill:#798AAE;} .st14{fill:#8672A7;} .st15{fill:#CC5960;} .st16{fill:#E17A5F;} .st17{fill:#849B87;} .st18{opacity:0.8;fill:#E15C64;} .st19{opacity:0.8;fill:#F7B26A;} .st20{fill:#79A5B5;} .st21{opacity:0.8;fill:#79A5B4;} .st22{fill:#666766;}</style><g class="ld ld-cycle" style="transform-origin: 50px 50px 0px; animation-duration: 0.8s; animation-delay: -0.727273s; animation-direction: normal;"><path id="XMLID_5_" class="st3" d="M92.5,49.1c0,0-0.1,0.9-0.2,2.7c0,0.4-0.1,0.9-0.1,1.5c-0.1,0.6-0.2,1.3-0.3,2 c-0.1,0.7-0.3,1.5-0.4,2.3c-0.2,0.8-0.4,1.6-0.7,2.5c-0.4,1.8-1.2,3.6-2,5.6c-0.5,1-1,2-1.5,3c-0.1,0.3-0.3,0.5-0.4,0.8 c-0.2,0.3-0.3,0.5-0.5,0.8c-0.3,0.5-0.6,1-1,1.6c-2.7,4.2-6.5,8.4-11.5,11.9c-0.3,0.2-0.6,0.4-0.9,0.7c-0.3,0.2-0.7,0.4-1,0.6 c-0.7,0.4-1.3,0.8-2,1.2c-0.7,0.4-1.4,0.7-2.1,1.1c-0.7,0.3-1.5,0.7-2.2,1c-0.8,0.3-1.6,0.5-2.3,0.8c-0.8,0.3-1.6,0.6-2.4,0.8 c-1.6,0.4-3.3,0.9-5,1c-0.9,0.1-1.7,0.2-2.6,0.3c-0.9,0-1.8,0.1-2.6,0.1l-1.3,0l-0.3,0l-0.1,0c-0.4,0-0.1,0-0.2,0l-0.2,0l-0.6,0 c-0.8-0.1-1.7-0.1-2.5-0.2l-0.6,0c-0.2,0-0.5-0.1-0.7-0.1l-1.4-0.2c-0.9-0.2-1.9-0.3-2.8-0.5c-1.8-0.5-3.6-0.9-5.3-1.7 c-7-2.6-13.5-7.4-18.3-13.5c-2.4-3.1-4.3-6.5-5.8-10.2C9,61.2,8.1,57.4,7.7,53.5c-0.1-1-0.1-2-0.1-2.9l0-1.5l0-0.2c0,0,0-0.3,0-0.2 l0-0.1l0-0.3l0-0.7l0.2-2.8l0.5-3c0.1-0.5,0.2-1,0.3-1.5L8.9,39c0.3-0.9,0.5-1.9,0.8-2.8c0.3-0.9,0.7-1.8,1-2.7l0.3-0.7l0.3-0.6 l0.6-1.3c0.8-1.7,1.9-3.3,2.9-4.9c0.6-0.7,1.2-1.5,1.7-2.2c0.3-0.4,0.6-0.8,0.9-1.1l1-1c2.5-2.8,5.4-5.1,8.5-7 c0.8-0.5,1.6-0.9,2.3-1.4c0.8-0.4,1.6-0.8,2.4-1.1l1.2-0.6c0.4-0.2,0.8-0.3,1.2-0.5c0.8-0.3,1.6-0.6,2.5-0.9 c3.3-0.9,6.7-1.6,9.9-1.6c0.8,0,1.6-0.1,2.5-0.1c0.8,0,1.6,0.1,2.3,0.1c0.4,0,0.8,0,1.2,0.1C52.9,8.9,53.3,9,53.7,9 c0.8,0.1,1.6,0.2,2.3,0.4c0.7,0.2,1.5,0.4,2.2,0.5c0.4,0.1,0.7,0.2,1.1,0.3c0.4,0.1,0.7,0.2,1.1,0.4c0.7,0.2,1.4,0.5,2.1,0.7 c0.7,0.3,1.3,0.6,2,0.8c5.2,2.3,9.4,5.5,12.5,8.8c3.2,3.3,5.3,6.7,6.8,9.6c1.4,2.9,2.3,5.4,2.7,7.1c0.4,1.7,0.7,2.6,0.7,2.6 s-0.3-0.9-0.7-2.6c-0.5-1.7-1.4-4-3-6.9c-1.6-2.8-3.8-6.1-7.1-9.2c-3.2-3.1-7.4-6.1-12.5-8.1c-0.6-0.2-1.3-0.5-1.9-0.7 c-0.7-0.2-1.3-0.4-2-0.6c-0.3-0.1-0.7-0.2-1-0.3c-0.3-0.1-0.7-0.1-1.1-0.2c-0.7-0.1-1.4-0.3-2.1-0.4c-0.7-0.1-1.5-0.2-2.2-0.3 c-0.4,0-0.7-0.1-1.1-0.1c-0.4,0-0.8,0-1.2,0c-0.8,0-1.6,0-2.3-0.1c-0.8,0.1-1.5,0.1-2.3,0.2c-3.1,0.2-6.2,0.9-9.3,1.9 c-0.8,0.3-1.5,0.6-2.3,0.9c-0.4,0.2-0.8,0.3-1.1,0.5l-1.1,0.6c-0.7,0.4-1.5,0.7-2.2,1.1c-0.7,0.4-1.4,0.9-2.1,1.3 c-2.8,1.9-5.4,4.1-7.6,6.8l-0.9,1c-0.3,0.3-0.5,0.7-0.8,1c-0.5,0.7-1,1.4-1.5,2.1c-0.8,1.5-1.8,3-2.5,4.6l-0.5,1.2l-0.3,0.6 l-0.2,0.6l-0.9,2.5c-0.3,0.8-0.4,1.7-0.6,2.6l-0.3,1.3c-0.1,0.4-0.1,0.8-0.2,1.3L11.8,45l-0.1,2.8l0,0.7l0,0.3l0,0.1 c0,0.1,0-0.1,0,0l0,0.2l0.1,1.3c0.1,0.9,0.1,1.8,0.2,2.6c0.5,3.5,1.5,6.9,2.8,10.1c1.5,3.1,3.3,6.1,5.5,8.8C24.7,77,30.4,81,36.6,83 c1.5,0.6,3.1,0.9,4.6,1.3c0.8,0.2,1.5,0.2,2.2,0.3l1.1,0.2c0.2,0,0.4,0.1,0.6,0.1l0.6,0c0.8,0,1.7,0.1,2.5,0.1l0.6,0l0.2,0 c0,0,0.2,0-0.1,0l0.1,0l0.3,0l1.1-0.1c0.7-0.1,1.5-0.1,2.2-0.2c0.7-0.1,1.5-0.3,2.2-0.4c1.5-0.2,2.8-0.7,4.2-1 c0.7-0.2,1.3-0.5,2-0.7c0.6-0.3,1.3-0.5,1.9-0.8c0.6-0.3,1.2-0.6,1.8-0.9c0.6-0.3,1.2-0.6,1.7-1c0.6-0.4,1.1-0.7,1.7-1 c0.3-0.2,0.6-0.3,0.8-0.5l0.8-0.6c4-3,7-6.7,9.1-10.1c0.3-0.4,0.5-0.9,0.8-1.3c0.1-0.2,0.2-0.4,0.4-0.6c0.1-0.2,0.2-0.4,0.3-0.7 c0.4-0.9,0.8-1.7,1.1-2.5c0.5-1.7,1.2-3.2,1.4-4.6c0.2-0.7,0.3-1.4,0.5-2c0.1-0.6,0.1-1.2,0.2-1.7c0.1-0.5,0.1-1,0.2-1.4 c0-0.5,0-1,0.1-1.4c0.1-1.7,0.1-2.7,0.1-2.7c0.1-2.4,2.1-4.3,4.5-4.2c2.4,0.1,4.3,2.1,4.2,4.5C92.5,49,92.5,49,92.5,49.1z" fill="#f58e19" style="fill: #ea1320;"></path></g><metadata xmlns:d="https://loading.io/stock/" class="ld ld-cycle" style="transform-origin: 50px 50px 0px; animation-duration: 0.8s; animation-delay: -0.654545s; animation-direction: normal;">
<d:name class="ld ld-cycle" style="transform-origin: 50px 50px 0px; animation-duration: 0.8s; animation-delay: -0.581818s; animation-direction: normal;">comet</d:name>
<d:tags class="ld ld-cycle" style="transform-origin: 50px 50px 0px; animation-duration: 0.8s; animation-delay: -0.509091s; animation-direction: normal;">meteor,tail,sperm,worm,ring,comet,spinner</d:tags>
<d:license class="ld ld-cycle" style="transform-origin: 50px 50px 0px; animation-duration: 0.8s; animation-delay: -0.436364s; animation-direction: normal;">cc-by</d:license>
<d:slug class="ld ld-cycle" style="transform-origin: 50px 50px 0px; animation-duration: 0.8s; animation-delay: -0.363636s; animation-direction: normal;">kbmzeh</d:slug>
</metadata></g></g></g></g><style type="text/css" class="ld ld-cycle" style="transform-origin: 50px 50px 0px; animation-duration: 0.8s; animation-delay: -0.290909s; animation-direction: normal;">path,ellipse,circle,rect,polygon,polyline,line { stroke-width: 0; }@keyframes ld-cycle {
  0%, 50%, 100% {
    animation-timing-function: cubic-bezier(0.5, 0.5, 0.5, 0.5);
  }
  0% {
    -webkit-transform: rotate(0);
    transform: rotate(0);
  }
  50% {
    -webkit-transform: rotate(180deg);
    transform: rotate(180deg);
  }
  100% {
    -webkit-transform: rotate(360deg);
    transform: rotate(360deg);
  }
}
@-webkit-keyframes ld-cycle {
  0%, 50%, 100% {
    animation-timing-function: cubic-bezier(0.5, 0.5, 0.5, 0.5);
  }
  0% {
    -webkit-transform: rotate(0);
    transform: rotate(0);
  }
  50% {
    -webkit-transform: rotate(180deg);
    transform: rotate(180deg);
  }
  100% {
    -webkit-transform: rotate(360deg);
    transform: rotate(360deg);
  }
}
.ld.ld-cycle {
  -webkit-animation: ld-cycle 1s infinite linear;
  animation: ld-cycle 1s infinite linear;
}
</style></svg></svg>
