<?xml version="1.0" encoding="UTF-8"?>
<!DOCTYPE svg PUBLIC "-//W3C//DTD SVG 1.1//EN" "http://www.w3.org/Graphics/SVG/1.1/DTD/svg11.dtd">
<!-- Creator: CorelDRAW X7 -->
<svg xmlns="http://www.w3.org/2000/svg" xml:space="preserve" width="251.739mm" height="100.404mm" version="1.1" style="shape-rendering:geometricPrecision; text-rendering:geometricPrecision; image-rendering:optimizeQuality; fill-rule:evenodd; clip-rule:evenodd"
viewBox="0 0 25174 10040"
 xmlns:xlink="http://www.w3.org/1999/xlink">
 <defs>
  <style type="text/css">
   <![CDATA[
    .str0 {stroke:#5B5B5B;stroke-width:7.62}
    .fil3 {fill:none}
    .fil0 {fill:#FEFEFE}
    .fil2 {fill:#434242}
    .fil4 {fill:black}
    .fil1 {fill:#D40C13}
    .fil5 {fill:#FEFEFE}
    .fil7 {fill:#190B99;fill-rule:nonzero}
    .fil6 {fill:#D40C13;fill-rule:nonzero}
   ]]>
  </style>
   <clipPath id="id0">
    <path d="M797 270l23580 0c287,0 522,235 522,522l0 8457c0,287 -235,521 -522,521l-23580 0c-287,0 -522,-234 -522,-521l0 -8457c0,-287 235,-522 522,-522z"/>
   </clipPath>
 </defs>
 <g id="Layer_x0020_1">
  <metadata id="CorelCorpID_0Corel-Layer"/>
  <path class="fil0" d="M797 270l23580 0c287,0 522,235 522,522l0 8457c0,287 -235,521 -522,521l-23580 0c-287,0 -522,-234 -522,-521l0 -8457c0,-287 235,-522 522,-522z"/>
  <g style="clip-path:url(#id0)">
   <g id="_1967174874528">
    <rect class="fil1" x="275" y="273" width="24624" height="1731"/>
    <rect class="fil2" x="275" y="8905" width="24624" height="866"/>
   </g>
  </g>
  <path class="fil3 str0" d="M797 270l23580 0c287,0 522,235 522,522l0 8457c0,287 -235,521 -522,521l-23580 0c-287,0 -522,-234 -522,-521l0 -8457c0,-287 235,-522 522,-522z"/>
  <g id="_1967174555568">
   <rect class="fil1" x="20754" y="3181" width="3040" height="3040"/>
   <polygon class="fil0" points="20960,3386 23588,3386 23588,6015 20960,6015 "/>
   <g>
    <polygon class="fil4" points="22698,4559 22698,4842 22604,4842 22604,4936 22510,4936 22510,5030 22416,5030 22415,5124 22604,5124 22604,5313 22510,5313 22510,5219 22323,5219 22321,5501 22510,5501 22510,5407 22604,5407 22604,5595 22698,5595 22698,5784 22886,5784 22878,5878 23451,5878 23451,5784 23263,5784 23263,5690 23357,5690 23357,5595 23451,5595 23451,5501 23357,5501 23357,5407 23263,5407 23263,5501 23169,5501 23169,5407 23075,5407 23075,5124 23169,5124 23169,5313 23450,5313 23451,4936 23357,4936 23358,5030 23075,5030 23075,4654 22981,4654 22981,4748 22886,4748 22886,4559 22981,4559 22980,4371 22886,4371 22886,4465 22792,4465 22792,4559 "/>
    <polygon class="fil4" points="22321,3712 22321,3806 22227,3806 22227,3900 22133,3900 22133,3994 22039,3994 22039,4465 21943,4465 21945,4277 21850,4277 21850,4371 21756,4371 21756,4465 21662,4465 21662,4559 21756,4559 21756,4654 21850,4654 21846,4842 21568,4842 21568,4748 21380,4748 21377,4842 21474,4842 21474,4936 21285,4936 21285,5124 21465,5124 21474,5030 21568,5030 21568,4936 21848,4936 21850,5219 22133,5219 22133,5030 22227,5030 22227,4842 22415,4842 22415,4936 22510,4936 22510,4842 22604,4842 22604,4748 22510,4748 22510,4654 22604,4654 22604,4559 22415,4559 22415,4465 22321,4465 22321,4089 22227,4089 22227,3994 22604,3994 22604,3900 22698,3900 22698,3523 22416,3523 22415,3618 22604,3618 22604,3806 22510,3806 22510,3712 "/>
    <polygon class="fil4" points="22792,4183 23454,4183 23451,3523 22792,3523 "/>
    <polygon class="fil4" points="21097,4183 21756,4183 21756,3523 21765,3523 21097,3523 "/>
    <polygon class="fil4" points="21097,5878 21748,5878 21756,5219 21106,5219 "/>
    <polygon class="fil5" points="21191,4089 21679,4089 21662,4089 21662,3618 21191,3618 "/>
    <polygon class="fil5" points="22886,4089 23357,4089 23357,3618 22886,3618 "/>
    <polygon class="fil5" points="21191,5784 21662,5784 21662,5313 21191,5313 "/>
    <polygon class="fil4" points="22604,5595 22415,5595 22415,5690 22039,5690 22039,5501 21850,5501 21850,5878 22039,5878 22039,5784 22133,5784 22133,5878 22227,5878 22227,5784 22510,5784 22510,5690 22604,5690 "/>
    <polygon class="fil4" points="21945,3618 21945,3712 21850,3712 21850,3994 21944,3994 21945,3900 22133,3900 22133,3712 22321,3712 22321,3523 22227,3523 22227,3618 22133,3618 22133,3523 22039,3523 22039,3618 "/>
    <polygon class="fil4" points="21191,4936 21285,4936 21285,4465 21191,4465 21191,4371 21200,4371 21379,4371 21380,4465 21474,4465 21474,4277 21097,4277 21097,4559 21191,4559 "/>
    <polygon class="fil5" points="21285,4936 21474,4936 21474,4842 21377,4842 21380,4748 21568,4748 21568,4654 21380,4654 21381,4559 21474,4559 21474,4465 21380,4465 21379,4371 21200,4371 21191,4371 21191,4465 21285,4465 "/>
    <polygon class="fil4" points="22981,3994 23263,3994 23263,3712 22979,3712 "/>
    <polygon class="fil4" points="21285,5690 21568,5690 21568,5407 21285,5407 "/>
    <polygon class="fil4" points="21285,3994 21576,3994 21568,3994 21568,3712 21285,3712 "/>
    <polygon class="fil5" points="22698,5407 22980,5407 22981,5124 22700,5124 "/>
    <polygon class="fil5" points="23357,4936 23169,4936 23169,4842 23357,4842 23357,4748 23169,4748 23169,4654 23075,4654 23075,5030 23358,5030 "/>
    <polygon class="fil4" points="23075,4654 23169,4654 23169,4748 23357,4748 23357,4842 23451,4842 23451,4654 23263,4654 23263,4559 23075,4559 "/>
    <polygon class="fil4" points="22415,4465 22604,4465 22604,4559 22698,4559 22698,4371 22510,4371 22510,4277 22415,4277 "/>
    <polygon class="fil5" points="22604,4842 22698,4842 22698,4559 22604,4559 22604,4654 22510,4654 22510,4748 22604,4748 "/>
    <polygon class="fil5" points="21568,4748 21568,4842 21846,4842 21850,4654 21756,4654 21756,4748 "/>
    <polygon class="fil5" points="22133,4748 22227,4748 22227,4654 22321,4654 22321,4559 22133,4559 "/>
    <polygon class="fil5" points="22886,5784 22981,5784 22981,5501 22886,5501 "/>
    <polygon class="fil5" points="22133,3900 22227,3900 22227,3806 22321,3806 22321,3712 22133,3712 "/>
    <polygon class="fil4" points="22980,4371 23263,4371 23263,4277 22982,4277 "/>
    <polygon class="fil4" points="21568,4654 21568,4465 21474,4465 21474,4559 21381,4559 21380,4654 "/>
    <polygon class="fil5" points="22227,4089 22133,4088 22133,4277 22228,4277 "/>
    <polygon class="fil5" points="23075,5784 23169,5784 23169,5595 23075,5595 "/>
    <polygon class="fil5" points="22604,4559 22604,4465 22415,4465 22415,4559 "/>
    <polygon class="fil4" points="21568,4748 21756,4748 21756,4654 21568,4654 "/>
    <polygon class="fil4" points="23357,4936 23357,4842 23169,4842 23169,4936 "/>
    <polygon class="fil5" points="22133,4748 22039,4748 22039,4842 22133,4842 "/>
    <polygon class="fil5" points="22321,3806 22321,3900 22416,3900 22415,3806 "/>
    <polygon class="fil5" points="23263,5219 23357,5219 23357,5124 23263,5124 "/>
    <polygon class="fil5" points="22698,5595 22792,5595 22792,5501 22698,5501 "/>
    <polygon class="fil5" points="22321,4654 22321,4748 22415,4748 22415,4654 "/>
    <polygon class="fil5" points="22133,4465 22227,4465 22227,4371 22133,4371 "/>
    <polygon class="fil5" points="22886,4936 22981,4936 22981,4842 22886,4842 "/>
    <polygon class="fil5" points="22039,5030 21945,5030 21945,5125 22039,5125 "/>
    <polygon class="fil5" points="22886,4936 22792,4936 22792,5030 22886,5030 "/>
    <polygon class="fil5" points="22510,4936 22604,4936 22604,4842 22510,4842 "/>
    <polygon class="fil5" points="22039,5030 22133,5030 22133,4936 22039,4936 "/>
    <polygon class="fil4" points="22510,4277 22604,4277 22604,4183 22510,4183 "/>
    <polygon class="fil4" points="23357,4371 23263,4371 23263,4465 23357,4465 "/>
    <polygon class="fil4" points="21191,4936 21097,4936 21097,5030 21191,5030 "/>
    <polygon class="fil4" points="21945,3618 21944,3523 21850,3523 21850,3618 "/>
    <polygon class="fil4" points="22604,4183 22698,4183 22698,4089 22604,4089 "/>
    <polygon class="fil4" points="21756,4371 21756,4277 21662,4277 21662,4371 "/>
    <polygon class="fil4" points="22510,4183 22510,4089 22415,4089 22415,4183 "/>
    <polygon class="fil4" points="21662,5124 21756,5124 21756,5030 21662,5030 "/>
    <polygon class="fil4" points="21850,4183 21945,4183 21945,4089 21850,4089 "/>
    <polygon class="fil4" points="23357,4371 23451,4371 23451,4277 23357,4277 "/>
    <polygon class="fil4" points="22792,5313 22886,5313 22886,5219 22792,5219 "/>
    <polygon class="fil4" points="22133,5407 22227,5407 22227,5313 22133,5313 "/>
    <polygon class="fil4" points="22698,4371 22792,4371 22792,4277 22698,4277 "/>
    <polygon class="fil4" points="22227,5030 22227,5124 22321,5124 22321,5030 "/>
   </g>
  </g>
  <g id="_1967174559824">
   <rect class="fil1" transform="matrix(1.98916E-015 -0.0800904 0.0751063 2.12116E-015 19588.5 8336.74)" width="3528" height="847"/>
   <rect class="fil1" transform="matrix(1.98916E-015 -0.0800904 0.0751063 2.12116E-015 19588.5 7974.11)" width="3528" height="847"/>
   <rect class="fil1" transform="matrix(1.98916E-015 -0.0800904 0.0751063 2.12116E-015 19588.5 7611.48)" width="3528" height="847"/>
   <rect class="fil1" transform="matrix(1.98916E-015 -0.0800904 0.0751063 2.12116E-015 19588.5 7248.84)" width="3528" height="847"/>
   <rect class="fil1" transform="matrix(1.98916E-015 -0.0800904 0.0751063 2.12116E-015 19588.5 6886.21)" width="3528" height="847"/>
   <rect class="fil1" transform="matrix(1.98916E-015 -0.0800904 0.0751063 2.12116E-015 19588.5 6523.58)" width="3528" height="847"/>
   <rect class="fil1" transform="matrix(1.98916E-015 -0.0800904 0.0751063 2.12116E-015 19588.5 6160.95)" width="3528" height="847"/>
   <rect class="fil1" transform="matrix(1.98916E-015 -0.0800904 0.0751063 2.12116E-015 19588.5 5798.32)" width="3528" height="847"/>
   <rect class="fil1" transform="matrix(1.98916E-015 -0.0800904 0.0751063 2.12116E-015 19588.5 5435.69)" width="3528" height="847"/>
   <rect class="fil1" transform="matrix(1.98916E-015 -0.0800904 0.0751063 2.12116E-015 19588.5 5073.05)" width="3528" height="847"/>
   <rect class="fil1" transform="matrix(1.98916E-015 -0.0800904 0.0751063 2.12116E-015 19588.5 4710.42)" width="3528" height="847"/>
   <rect class="fil1" transform="matrix(1.98916E-015 -0.0800904 0.0751063 2.12116E-015 19588.5 4347.79)" width="3528" height="847"/>
   <rect class="fil1" transform="matrix(1.98916E-015 -0.0800904 0.0751063 2.12116E-015 19588.5 3985.16)" width="3528" height="847"/>
   <rect class="fil1" transform="matrix(1.98916E-015 -0.0800904 0.0751063 2.12116E-015 19588.5 3622.53)" width="3528" height="847"/>
   <rect class="fil1" transform="matrix(1.98916E-015 -0.0800904 0.0751063 2.12116E-015 19588.5 3259.9)" width="3528" height="847"/>
   <rect class="fil1" transform="matrix(1.98916E-015 -0.0800904 0.0751063 2.12116E-015 19588.5 2897.26)" width="3528" height="847"/>
  </g>
  <rect class="fil0" x="1274" y="274" width="6204" height="1971"/>
  <polygon class="fil6" points="1755,1279 1903,1279 2048,1786 2347,1279 2485,1279 2497,2006 2346,2006 2340,1571 2084,2006 1960,2006 1828,1550 1690,2006 1535,2006 "/>
  <path id="1" class="fil6" d="M3198 1469l158 0 -89 537 -156 0 9 -58c-34,26 -65,45 -95,55 -29,11 -63,16 -99,16 -85,0 -152,-26 -202,-78 -50,-52 -75,-113 -75,-182 0,-53 17,-104 48,-151 32,-48 75,-85 129,-112 54,-27 110,-40 168,-40 40,0 76,7 109,22 34,15 61,37 83,66l12 -75zm-236 433c39,0 73,-7 101,-22 29,-14 53,-37 73,-68 19,-31 29,-62 29,-94 0,-43 -15,-77 -44,-102 -29,-26 -68,-39 -116,-39 -56,0 -103,17 -142,52 -39,34 -59,79 -59,133 0,42 15,76 45,101 29,26 67,39 113,39z"/>
  <path id="2" class="fil6" d="M3872 1544l-74 101c-19,-24 -39,-42 -60,-53 -21,-11 -41,-17 -59,-17 -14,0 -26,3 -35,10 -10,6 -15,14 -15,22 0,8 4,16 12,24 7,8 29,23 67,46 59,36 98,66 117,92 19,26 29,54 29,84 0,40 -20,78 -59,113 -39,36 -95,53 -169,53 -43,0 -81,-7 -116,-22 -35,-14 -74,-41 -117,-79l96 -95c44,48 92,73 144,73 21,0 37,-4 50,-13 12,-8 18,-18 18,-30 0,-9 -5,-18 -14,-28 -9,-10 -35,-27 -77,-52 -48,-29 -81,-53 -100,-74 -26,-29 -38,-59 -38,-91 0,-45 20,-82 60,-110 41,-28 88,-42 144,-42 38,0 75,7 110,23 35,15 63,37 86,65z"/>
  <polygon id="3" class="fil6" points="4082,1268 4239,1268 4206,1469 4306,1469 4287,1583 4188,1583 4119,2006 3963,2006 4031,1583 3955,1583 3973,1469 4050,1469 "/>
  <path id="4" class="fil6" d="M4498 1249c27,0 49,8 68,24 19,16 29,35 29,58 0,22 -10,41 -29,57 -19,16 -41,24 -68,24 -27,0 -49,-8 -68,-24 -19,-16 -29,-35 -29,-57 0,-23 10,-42 29,-58 19,-16 41,-24 68,-24zm-107 220l156 0 -87 537 -156 0 87 -537z"/>
  <polygon id="5" class="fil6" points="4632,1279 5158,1279 5139,1409 4960,1409 4863,2006 4702,2006 4799,1409 4612,1409 "/>
  <path id="6" class="fil7" d="M5291 1249c26,0 49,8 68,24 19,16 28,35 28,58 0,22 -9,41 -28,57 -19,16 -42,24 -68,24 -27,0 -50,-8 -69,-24 -19,-16 -28,-35 -28,-57 0,-23 9,-42 28,-58 19,-16 42,-24 69,-24zm-107 220l156 0 -87 537 -156 0 87 -537z"/>
  <path id="7" class="fil7" d="M5492 1469l156 0 -9 58c57,-48 120,-71 191,-71 28,0 55,4 80,12 25,8 45,18 61,31 15,13 28,31 39,54 30,-32 64,-56 104,-73 39,-16 80,-24 123,-24 53,0 98,15 133,45 35,30 53,69 53,117 0,18 -2,40 -6,67l-52 321 -156 0 45 -276c5,-37 8,-62 8,-74 0,-25 -7,-44 -22,-57 -15,-13 -37,-20 -64,-20 -27,0 -54,8 -82,24 -27,16 -48,37 -62,64 -15,26 -27,71 -36,136l-33 203 -157 0 48 -292c3,-24 6,-44 6,-61 0,-23 -9,-42 -25,-56 -16,-13 -37,-20 -63,-20 -26,0 -51,7 -78,22 -27,15 -47,34 -62,60 -15,25 -26,64 -35,115l-36 232 -156 0 87 -537z"/>
  <path id="8" class="fil7" d="M7013 1848l138 60c-31,34 -72,61 -123,81 -51,20 -107,30 -170,30 -97,0 -174,-23 -230,-69 -56,-46 -84,-107 -84,-183 0,-87 35,-161 105,-221 70,-60 155,-90 255,-90 59,0 113,11 159,32 47,23 84,54 111,96 27,42 40,88 40,137 0,16 -2,34 -5,54l-510 0c2,38 16,67 44,90 27,22 65,33 114,33 59,0 111,-17 156,-50zm40 -169c-11,-32 -31,-57 -58,-74 -28,-17 -61,-25 -100,-25 -38,0 -73,9 -104,26 -31,17 -54,42 -70,73l332 0z"/>
 </g>
</svg>
