<?xml version="1.0" encoding="UTF-8"?>
<!DOCTYPE svg PUBLIC "-//W3C//DTD SVG 1.1//EN" "http://www.w3.org/Graphics/SVG/1.1/DTD/svg11.dtd">
<!-- Creator: CorelDRAW X7 -->
<svg xmlns="http://www.w3.org/2000/svg" xml:space="preserve" width="251.739mm" height="100.404mm" version="1.1" style="shape-rendering:geometricPrecision; text-rendering:geometricPrecision; image-rendering:optimizeQuality; fill-rule:evenodd; clip-rule:evenodd"
viewBox="0 0 25174 10040"
 xmlns:xlink="http://www.w3.org/1999/xlink">
 <defs>
  <style type="text/css">
   <![CDATA[
    .str0 {stroke:#5B5B5B;stroke-width:7.62}
    .fil3 {fill:none}
    .fil0 {fill:#FEFEFE}
    .fil2 {fill:#434242}
    .fil4 {fill:black}
    .fil1 {fill:#D40C13}
    .fil5 {fill:#FEFEFE}
    .fil6 {fill:#434242;fill-rule:nonzero}
   ]]>
  </style>
   <clipPath id="id0">
    <path d="M797 270l23580 0c287,0 522,235 522,522l0 8457c0,287 -235,521 -522,521l-23580 0c-287,0 -522,-234 -522,-521l0 -8457c0,-287 235,-522 522,-522z"/>
   </clipPath>
 </defs>
 <g id="Layer_x0020_1">
  <metadata id="CorelCorpID_0Corel-Layer"/>
  <path class="fil0" d="M797 270l23580 0c287,0 522,235 522,522l0 8457c0,287 -235,521 -522,521l-23580 0c-287,0 -522,-234 -522,-521l0 -8457c0,-287 235,-522 522,-522z"/>
  <g style="clip-path:url(#id0)">
   <g id="_2099166155776">
    <rect class="fil1" x="275" y="273" width="24624" height="1731"/>
    <rect class="fil2" x="275" y="8905" width="24624" height="866"/>
   </g>
  </g>
  <path class="fil3 str0" d="M797 270l23580 0c287,0 522,235 522,522l0 8457c0,287 -235,521 -522,521l-23580 0c-287,0 -522,-234 -522,-521l0 -8457c0,-287 235,-522 522,-522z"/>
  <g id="_2064652256320">
   <rect class="fil1" x="20754" y="3181" width="3040" height="3040"/>
   <polygon class="fil0" points="20960,3386 23588,3386 23588,6015 20960,6015 "/>
   <g>
    <polygon class="fil4" points="22698,4559 22698,4842 22604,4842 22604,4936 22510,4936 22510,5030 22416,5030 22415,5124 22604,5124 22604,5313 22510,5313 22510,5219 22323,5219 22321,5501 22510,5501 22510,5407 22604,5407 22604,5595 22698,5595 22698,5784 22886,5784 22878,5878 23451,5878 23451,5784 23263,5784 23263,5690 23357,5690 23357,5595 23451,5595 23451,5501 23357,5501 23357,5407 23263,5407 23263,5501 23169,5501 23169,5407 23075,5407 23075,5124 23169,5124 23169,5313 23450,5313 23451,4936 23357,4936 23358,5030 23075,5030 23075,4654 22981,4654 22981,4748 22886,4748 22886,4559 22981,4559 22980,4371 22886,4371 22886,4465 22792,4465 22792,4559 "/>
    <polygon class="fil4" points="22321,3712 22321,3806 22227,3806 22227,3900 22133,3900 22133,3994 22039,3994 22039,4465 21943,4465 21945,4277 21850,4277 21850,4371 21756,4371 21756,4465 21662,4465 21662,4559 21756,4559 21756,4654 21850,4654 21846,4842 21568,4842 21568,4748 21380,4748 21377,4842 21474,4842 21474,4936 21285,4936 21285,5124 21465,5124 21474,5030 21568,5030 21568,4936 21848,4936 21850,5219 22133,5219 22133,5030 22227,5030 22227,4842 22415,4842 22415,4936 22510,4936 22510,4842 22604,4842 22604,4748 22510,4748 22510,4654 22604,4654 22604,4559 22415,4559 22415,4465 22321,4465 22321,4089 22227,4089 22227,3994 22604,3994 22604,3900 22698,3900 22698,3523 22416,3523 22415,3618 22604,3618 22604,3806 22510,3806 22510,3712 "/>
    <polygon class="fil4" points="22792,4183 23454,4183 23451,3523 22792,3523 "/>
    <polygon class="fil4" points="21097,4183 21756,4183 21756,3523 21765,3523 21097,3523 "/>
    <polygon class="fil4" points="21097,5878 21748,5878 21756,5219 21106,5219 "/>
    <polygon class="fil5" points="21191,4089 21679,4089 21662,4089 21662,3618 21191,3618 "/>
    <polygon class="fil5" points="22886,4089 23357,4089 23357,3618 22886,3618 "/>
    <polygon class="fil5" points="21191,5784 21662,5784 21662,5313 21191,5313 "/>
    <polygon class="fil4" points="22604,5595 22415,5595 22415,5690 22039,5690 22039,5501 21850,5501 21850,5878 22039,5878 22039,5784 22133,5784 22133,5878 22227,5878 22227,5784 22510,5784 22510,5690 22604,5690 "/>
    <polygon class="fil4" points="21945,3618 21945,3712 21850,3712 21850,3994 21944,3994 21945,3900 22133,3900 22133,3712 22321,3712 22321,3523 22227,3523 22227,3618 22133,3618 22133,3523 22039,3523 22039,3618 "/>
    <polygon class="fil4" points="21191,4936 21285,4936 21285,4465 21191,4465 21191,4371 21200,4371 21379,4371 21380,4465 21474,4465 21474,4277 21097,4277 21097,4559 21191,4559 "/>
    <polygon class="fil5" points="21285,4936 21474,4936 21474,4842 21377,4842 21380,4748 21568,4748 21568,4654 21380,4654 21381,4559 21474,4559 21474,4465 21380,4465 21379,4371 21200,4371 21191,4371 21191,4465 21285,4465 "/>
    <polygon class="fil4" points="22981,3994 23263,3994 23263,3712 22979,3712 "/>
    <polygon class="fil4" points="21285,5690 21568,5690 21568,5407 21285,5407 "/>
    <polygon class="fil4" points="21285,3994 21576,3994 21568,3994 21568,3712 21285,3712 "/>
    <polygon class="fil5" points="22698,5407 22980,5407 22981,5124 22700,5124 "/>
    <polygon class="fil5" points="23357,4936 23169,4936 23169,4842 23357,4842 23357,4748 23169,4748 23169,4654 23075,4654 23075,5030 23358,5030 "/>
    <polygon class="fil4" points="23075,4654 23169,4654 23169,4748 23357,4748 23357,4842 23451,4842 23451,4654 23263,4654 23263,4559 23075,4559 "/>
    <polygon class="fil4" points="22415,4465 22604,4465 22604,4559 22698,4559 22698,4371 22510,4371 22510,4277 22415,4277 "/>
    <polygon class="fil5" points="22604,4842 22698,4842 22698,4559 22604,4559 22604,4654 22510,4654 22510,4748 22604,4748 "/>
    <polygon class="fil5" points="21568,4748 21568,4842 21846,4842 21850,4654 21756,4654 21756,4748 "/>
    <polygon class="fil5" points="22133,4748 22227,4748 22227,4654 22321,4654 22321,4559 22133,4559 "/>
    <polygon class="fil5" points="22886,5784 22981,5784 22981,5501 22886,5501 "/>
    <polygon class="fil5" points="22133,3900 22227,3900 22227,3806 22321,3806 22321,3712 22133,3712 "/>
    <polygon class="fil4" points="22980,4371 23263,4371 23263,4277 22982,4277 "/>
    <polygon class="fil4" points="21568,4654 21568,4465 21474,4465 21474,4559 21381,4559 21380,4654 "/>
    <polygon class="fil5" points="22227,4089 22133,4088 22133,4277 22228,4277 "/>
    <polygon class="fil5" points="23075,5784 23169,5784 23169,5595 23075,5595 "/>
    <polygon class="fil5" points="22604,4559 22604,4465 22415,4465 22415,4559 "/>
    <polygon class="fil4" points="21568,4748 21756,4748 21756,4654 21568,4654 "/>
    <polygon class="fil4" points="23357,4936 23357,4842 23169,4842 23169,4936 "/>
    <polygon class="fil5" points="22133,4748 22039,4748 22039,4842 22133,4842 "/>
    <polygon class="fil5" points="22321,3806 22321,3900 22416,3900 22415,3806 "/>
    <polygon class="fil5" points="23263,5219 23357,5219 23357,5124 23263,5124 "/>
    <polygon class="fil5" points="22698,5595 22792,5595 22792,5501 22698,5501 "/>
    <polygon class="fil5" points="22321,4654 22321,4748 22415,4748 22415,4654 "/>
    <polygon class="fil5" points="22133,4465 22227,4465 22227,4371 22133,4371 "/>
    <polygon class="fil5" points="22886,4936 22981,4936 22981,4842 22886,4842 "/>
    <polygon class="fil5" points="22039,5030 21945,5030 21945,5125 22039,5125 "/>
    <polygon class="fil5" points="22886,4936 22792,4936 22792,5030 22886,5030 "/>
    <polygon class="fil5" points="22510,4936 22604,4936 22604,4842 22510,4842 "/>
    <polygon class="fil5" points="22039,5030 22133,5030 22133,4936 22039,4936 "/>
    <polygon class="fil4" points="22510,4277 22604,4277 22604,4183 22510,4183 "/>
    <polygon class="fil4" points="23357,4371 23263,4371 23263,4465 23357,4465 "/>
    <polygon class="fil4" points="21191,4936 21097,4936 21097,5030 21191,5030 "/>
    <polygon class="fil4" points="21945,3618 21944,3523 21850,3523 21850,3618 "/>
    <polygon class="fil4" points="22604,4183 22698,4183 22698,4089 22604,4089 "/>
    <polygon class="fil4" points="21756,4371 21756,4277 21662,4277 21662,4371 "/>
    <polygon class="fil4" points="22510,4183 22510,4089 22415,4089 22415,4183 "/>
    <polygon class="fil4" points="21662,5124 21756,5124 21756,5030 21662,5030 "/>
    <polygon class="fil4" points="21850,4183 21945,4183 21945,4089 21850,4089 "/>
    <polygon class="fil4" points="23357,4371 23451,4371 23451,4277 23357,4277 "/>
    <polygon class="fil4" points="22792,5313 22886,5313 22886,5219 22792,5219 "/>
    <polygon class="fil4" points="22133,5407 22227,5407 22227,5313 22133,5313 "/>
    <polygon class="fil4" points="22698,4371 22792,4371 22792,4277 22698,4277 "/>
    <polygon class="fil4" points="22227,5030 22227,5124 22321,5124 22321,5030 "/>
   </g>
  </g>
  <g id="_2064652240160">
   <rect class="fil1" transform="matrix(1.98916E-015 -0.0800904 0.0751063 2.12116E-015 19588.5 8336.74)" width="3528" height="847"/>
   <rect class="fil1" transform="matrix(1.98916E-015 -0.0800904 0.0751063 2.12116E-015 19588.5 7974.11)" width="3528" height="847"/>
   <rect class="fil1" transform="matrix(1.98916E-015 -0.0800904 0.0751063 2.12116E-015 19588.5 7611.48)" width="3528" height="847"/>
   <rect class="fil1" transform="matrix(1.98916E-015 -0.0800904 0.0751063 2.12116E-015 19588.5 7248.84)" width="3528" height="847"/>
   <rect class="fil1" transform="matrix(1.98916E-015 -0.0800904 0.0751063 2.12116E-015 19588.5 6886.21)" width="3528" height="847"/>
   <rect class="fil1" transform="matrix(1.98916E-015 -0.0800904 0.0751063 2.12116E-015 19588.5 6523.58)" width="3528" height="847"/>
   <rect class="fil1" transform="matrix(1.98916E-015 -0.0800904 0.0751063 2.12116E-015 19588.5 6160.95)" width="3528" height="847"/>
   <rect class="fil1" transform="matrix(1.98916E-015 -0.0800904 0.0751063 2.12116E-015 19588.5 5798.32)" width="3528" height="847"/>
   <rect class="fil1" transform="matrix(1.98916E-015 -0.0800904 0.0751063 2.12116E-015 19588.5 5435.69)" width="3528" height="847"/>
   <rect class="fil1" transform="matrix(1.98916E-015 -0.0800904 0.0751063 2.12116E-015 19588.5 5073.05)" width="3528" height="847"/>
   <rect class="fil1" transform="matrix(1.98916E-015 -0.0800904 0.0751063 2.12116E-015 19588.5 4710.42)" width="3528" height="847"/>
   <rect class="fil1" transform="matrix(1.98916E-015 -0.0800904 0.0751063 2.12116E-015 19588.5 4347.79)" width="3528" height="847"/>
   <rect class="fil1" transform="matrix(1.98916E-015 -0.0800904 0.0751063 2.12116E-015 19588.5 3985.16)" width="3528" height="847"/>
   <rect class="fil1" transform="matrix(1.98916E-015 -0.0800904 0.0751063 2.12116E-015 19588.5 3622.53)" width="3528" height="847"/>
   <rect class="fil1" transform="matrix(1.98916E-015 -0.0800904 0.0751063 2.12116E-015 19588.5 3259.9)" width="3528" height="847"/>
   <rect class="fil1" transform="matrix(1.98916E-015 -0.0800904 0.0751063 2.12116E-015 19588.5 2897.26)" width="3528" height="847"/>
  </g>
  <rect class="fil0" x="1274" y="274" width="6204" height="1997"/>
  <polygon class="fil6" points="1744,932 1991,932 2086,1301 2180,932 2426,932 2426,1539 2273,1539 2273,1076 2154,1539 2016,1539 1898,1076 1898,1539 1744,1539 "/>
  <path id="1" class="fil6" d="M2918 1439l-212 0 -31 100 -191 0 228 -607 205 0 228 607 -197 0 -30 -100zm-40 -132l-66 -217 -66 217 132 0z"/>
  <path id="2" class="fil6" d="M3172 1338l177 -11c4,29 12,51 24,66 19,24 47,36 83,36 26,0 47,-6 61,-18 15,-13 22,-27 22,-44 0,-16 -7,-30 -20,-42 -14,-13 -46,-24 -96,-35 -82,-19 -141,-43 -176,-74 -35,-30 -53,-69 -53,-117 0,-31 9,-60 27,-88 19,-28 46,-49 82,-65 36,-16 86,-24 149,-24 77,0 136,15 177,44 41,28 65,74 73,137l-177 11c-4,-28 -14,-48 -29,-60 -15,-13 -36,-19 -62,-19 -22,0 -39,5 -50,14 -11,9 -16,20 -16,33 0,10 4,19 13,26 9,8 30,16 63,23 82,17 140,35 176,53 35,18 61,41 77,67 16,27 24,57 24,90 0,39 -11,75 -32,108 -22,32 -52,57 -90,74 -39,17 -87,26 -146,26 -103,0 -175,-20 -214,-60 -40,-39 -62,-90 -67,-151z"/>
  <polygon id="3" class="fil6" points="3773,932 4343,932 4343,1082 4151,1082 4151,1539 3964,1539 3964,1082 3773,1082 "/>
  <polygon id="4" class="fil6" points="4434,932 4622,932 4622,1539 4434,1539 "/>
  <polygon id="5" class="fil6" points="4714,932 5284,932 5284,1082 5092,1082 5092,1539 4905,1539 4905,1082 4714,1082 "/>
  <polygon id="6" class="fil6" points="5375,932 5563,932 5563,1539 5375,1539 "/>
  <polygon id="7" class="fil6" points="5695,932 5942,932 6037,1301 6131,932 6377,932 6377,1539 6224,1539 6224,1076 6105,1539 5967,1539 5849,1076 5849,1539 5695,1539 "/>
  <polygon id="8" class="fil6" points="6496,932 6997,932 6997,1062 6684,1062 6684,1158 6974,1158 6974,1282 6684,1282 6684,1401 7007,1401 7007,1539 6496,1539 "/>
 </g>
</svg>
