<?xml version="1.0" encoding="UTF-8"?>
<!DOCTYPE svg PUBLIC "-//W3C//DTD SVG 1.1//EN" "http://www.w3.org/Graphics/SVG/1.1/DTD/svg11.dtd">
<!-- Creator: CorelDRAW X7 -->
<svg xmlns="http://www.w3.org/2000/svg" xml:space="preserve" width="251.739mm" height="100.404mm" version="1.1" style="shape-rendering:geometricPrecision; text-rendering:geometricPrecision; image-rendering:optimizeQuality; fill-rule:evenodd; clip-rule:evenodd"
viewBox="0 0 25174 10040"
 xmlns:xlink="http://www.w3.org/1999/xlink">
 <defs>
  <style type="text/css">
   <![CDATA[
    .str0 {stroke:#FEFEFE;stroke-width:70.55}
    .fil0 {fill:#1B8BDB}
    .fil1 {fill:#1B8BDB}
   ]]>
  </style>
 </defs>
 <g id="Layer_x0020_1">
  <metadata id="CorelCorpID_0Corel-Layer"/>
  <path class="fil0" d="M865 270l23444 0c324,0 590,216 590,480l0 614 0 2999c-363,0 -657,294 -657,657 0,363 294,657 657,657l0 2389 0 1224c0,264 -266,480 -590,480l-23444 0c-324,0 -590,-216 -590,-480l0 -871 0 -2742c363,0 657,-294 657,-657 0,-363 -294,-657 -657,-657l0 -3141 0 -472c0,-264 266,-480 590,-480z"/>
  <g id="_2393971865360">
   <polygon class="fil1 str0" points="2233,2089 4534,2089 4534,4043 2233,4043 "/>
   <polygon class="fil1 str0" points="2233,4043 4534,4043 4534,5997 2233,5997 "/>
   <polygon class="fil1 str0" points="2233,5997 4534,5997 4534,7952 2233,7952 "/>
   <polygon class="fil1 str0" points="4534,2089 6835,2089 6835,4043 4534,4043 "/>
   <polygon class="fil1 str0" points="4534,4043 6835,4043 6835,5997 4534,5997 "/>
   <polygon class="fil1 str0" points="4534,5997 6835,5997 6835,7952 4534,7952 "/>
   <polygon class="fil1 str0" points="6835,2089 9136,2089 9136,4043 6835,4043 "/>
   <polygon class="fil1 str0" points="6835,4043 9136,4043 9136,5997 6835,5997 "/>
   <polygon class="fil1 str0" points="6835,5997 9136,5997 9136,7952 6835,7952 "/>
   <polygon class="fil1 str0" points="9136,2089 11437,2089 11437,4043 9136,4043 "/>
   <polygon class="fil1 str0" points="9136,4043 11437,4043 11437,5997 9136,5997 "/>
   <polygon class="fil1 str0" points="9136,5997 11437,5997 11437,7952 9136,7952 "/>
   <polygon class="fil1 str0" points="11437,2089 13737,2089 13737,4043 11437,4043 "/>
   <polygon class="fil1 str0" points="11437,4043 13737,4043 13737,5997 11437,5997 "/>
   <polygon class="fil1 str0" points="11437,5997 13737,5997 13737,7952 11437,7952 "/>
   <polygon class="fil1 str0" points="13737,2089 16038,2089 16038,4043 13737,4043 "/>
   <polygon class="fil1 str0" points="13737,4043 16038,4043 16038,5997 13737,5997 "/>
   <polygon class="fil1 str0" points="13737,5997 16038,5997 16038,7952 13737,7952 "/>
   <polygon class="fil1 str0" points="16038,2089 18339,2089 18339,4043 16038,4043 "/>
   <polygon class="fil1 str0" points="16038,4043 18339,4043 18339,5997 16038,5997 "/>
   <polygon class="fil1 str0" points="16038,5997 18339,5997 18339,7952 16038,7952 "/>
   <polygon class="fil1 str0" points="18339,2089 20640,2089 20640,4043 18339,4043 "/>
   <polygon class="fil1 str0" points="18339,4043 20640,4043 20640,5997 18339,5997 "/>
   <polygon class="fil1 str0" points="18339,5997 20640,5997 20640,7952 18339,7952 "/>
   <polygon class="fil1 str0" points="20640,2089 22941,2089 22941,4043 20640,4043 "/>
   <polygon class="fil1 str0" points="20640,4043 22941,4043 22941,5997 20640,5997 "/>
   <polygon class="fil1 str0" points="20640,5997 22941,5997 22941,7952 20640,7952 "/>
  </g>
 </g>
</svg>
