<?xml version="1.0" encoding="UTF-8"?>
<!DOCTYPE svg PUBLIC "-//W3C//DTD SVG 1.1//EN" "http://www.w3.org/Graphics/SVG/1.1/DTD/svg11.dtd">
<!-- Creator: CorelDRAW X7 -->
<svg xmlns="http://www.w3.org/2000/svg" xml:space="preserve" width="251.739mm" height="100.404mm" version="1.1" style="shape-rendering:geometricPrecision; text-rendering:geometricPrecision; image-rendering:optimizeQuality; fill-rule:evenodd; clip-rule:evenodd"
viewBox="0 0 25174 10040"
 xmlns:xlink="http://www.w3.org/1999/xlink">
 <defs>
  <style type="text/css">
   <![CDATA[
    .str0 {stroke:#434242;stroke-width:7.62}
    .str1 {stroke:#D40C13;stroke-width:7.62}
    .fil0 {fill:#FEFEFE}
    .fil1 {fill:#434242}
    .fil3 {fill:black}
    .fil2 {fill:#D40C13}
    .fil4 {fill:#FEFEFE}
   ]]>
  </style>
   <clipPath id="id0">
    <rect x="9303" y="2759" width="6568" height="5298"/>
   </clipPath>
 </defs>
 <g id="Layer_x0020_1">
  <metadata id="CorelCorpID_0Corel-Layer"/>
  <rect class="fil0 str0" x="275" y="270" width="24624" height="9500" rx="409" ry="522"/>
  <path class="fil1" d="M2306 270l-1509 0c-287,0 -522,235 -522,522l0 8457c0,287 235,521 522,521l1509 0 0 -9500z"/>
  <path class="fil2 str1" d="M22868 270l1509 0c287,0 522,235 522,522l0 8457c0,287 -235,521 -522,521l-1509 0 0 -9500z"/>
  <g id="_2665409692768">
   <rect class="fil2" x="22248" y="413" width="2479" height="2479"/>
   <g>
    <polygon class="fil0" points="22416,581 24560,581 24560,2724 22416,2724 "/>
    <g>
     <polygon class="fil3" points="23834,1537 23834,1768 23757,1768 23757,1845 23680,1845 23680,1921 23604,1921 23603,1998 23757,1998 23757,2152 23680,2152 23680,2075 23528,2075 23527,2305 23680,2305 23680,2229 23757,2229 23757,2382 23834,2382 23834,2536 23987,2536 23980,2613 24448,2613 24448,2536 24295,2536 24295,2459 24371,2459 24371,2382 24448,2382 24448,2305 24371,2305 24371,2229 24295,2229 24295,2305 24218,2305 24218,2229 24141,2229 24141,1998 24218,1998 24218,2152 24447,2152 24448,1845 24371,1845 24372,1921 24141,1921 24141,1614 24064,1614 24064,1691 23987,1691 23987,1537 24064,1537 24064,1384 23987,1384 23987,1461 23911,1461 23911,1537 "/>
     <polygon class="fil3" points="23527,846 23527,923 23450,923 23450,1000 23373,1000 23373,1077 23296,1077 23296,1461 23218,1461 23219,1307 23143,1307 23143,1384 23066,1384 23066,1461 22989,1461 22989,1537 23066,1537 23066,1614 23143,1614 23139,1768 22912,1768 22912,1691 22759,1691 22757,1768 22835,1768 22835,1845 22682,1845 22682,1998 22828,1998 22835,1921 22912,1921 22912,1845 23141,1845 23143,2075 23373,2075 23373,1921 23450,1921 23450,1768 23603,1768 23603,1845 23680,1845 23680,1768 23757,1768 23757,1691 23680,1691 23680,1614 23757,1614 23757,1537 23603,1537 23603,1461 23527,1461 23527,1153 23450,1153 23450,1076 23757,1076 23757,1000 23834,1000 23834,693 23604,693 23603,769 23757,769 23757,923 23680,923 23680,846 "/>
     <polygon class="fil3" points="23911,1230 24450,1230 24448,693 23911,693 "/>
     <polygon class="fil3" points="22528,1230 23066,1230 23066,693 23073,693 22528,693 "/>
     <polygon class="fil3" points="22528,2613 23059,2613 23066,2075 22535,2075 "/>
     <polygon class="fil4" points="22605,1153 23003,1153 22989,1153 22989,769 22605,769 "/>
     <polygon class="fil4" points="23987,1153 24371,1153 24371,769 23987,769 "/>
     <polygon class="fil4" points="22605,2536 22989,2536 22989,2152 22605,2152 "/>
     <polygon class="fil3" points="23757,2382 23603,2382 23603,2459 23296,2459 23296,2305 23143,2305 23143,2613 23296,2613 23296,2536 23373,2536 23373,2613 23450,2613 23450,2536 23680,2536 23680,2459 23757,2459 "/>
     <polygon class="fil3" points="23219,769 23219,846 23143,846 23143,1076 23219,1076 23219,1000 23373,1000 23373,846 23527,846 23527,693 23450,693 23450,769 23373,769 23373,693 23296,693 23296,769 "/>
     <polygon class="fil3" points="22605,1845 22682,1845 22682,1461 22605,1461 22605,1384 22612,1384 22759,1384 22759,1461 22835,1461 22835,1307 22528,1307 22528,1537 22605,1537 "/>
     <polygon class="fil4" points="22682,1845 22835,1845 22835,1768 22757,1768 22759,1691 22912,1691 22912,1614 22759,1614 22759,1537 22835,1537 22835,1461 22759,1461 22759,1384 22612,1384 22605,1384 22605,1461 22682,1461 "/>
     <polygon class="fil3" points="24064,1076 24295,1076 24295,846 24063,846 "/>
     <polygon class="fil3" points="22682,2459 22912,2459 22912,2229 22682,2229 "/>
     <polygon class="fil3" points="22682,1076 22919,1076 22912,1076 22912,846 22682,846 "/>
     <polygon class="fil4" points="23834,2229 24064,2229 24064,1998 23836,1998 "/>
     <polygon class="fil4" points="24371,1845 24218,1845 24218,1768 24371,1768 24371,1691 24218,1691 24218,1614 24141,1614 24141,1921 24372,1921 "/>
     <polygon class="fil3" points="24141,1614 24218,1614 24218,1691 24371,1691 24371,1768 24448,1768 24448,1614 24295,1614 24295,1537 24141,1537 "/>
     <polygon class="fil3" points="23603,1461 23757,1461 23757,1537 23834,1537 23834,1384 23680,1384 23680,1307 23603,1307 "/>
     <polygon class="fil4" points="23757,1768 23834,1768 23834,1537 23757,1537 23757,1614 23680,1614 23680,1691 23757,1691 "/>
     <polygon class="fil4" points="22912,1691 22912,1768 23139,1768 23143,1614 23066,1614 23066,1691 "/>
     <polygon class="fil4" points="23373,1691 23450,1691 23450,1614 23527,1614 23527,1537 23373,1537 "/>
     <polygon class="fil4" points="23987,2536 24064,2536 24064,2305 23987,2305 "/>
     <polygon class="fil4" points="23373,1000 23450,1000 23450,923 23527,923 23527,846 23373,846 "/>
     <polygon class="fil3" points="24064,1384 24295,1384 24295,1307 24065,1307 "/>
     <polygon class="fil3" points="22912,1614 22912,1461 22835,1461 22835,1537 22759,1537 22759,1614 "/>
     <polygon class="fil4" points="23450,1153 23373,1153 23373,1307 23450,1307 "/>
     <polygon class="fil4" points="24141,2536 24218,2536 24218,2382 24141,2382 "/>
     <polygon class="fil4" points="23757,1537 23757,1461 23603,1461 23603,1537 "/>
     <polygon class="fil3" points="22912,1691 23066,1691 23066,1614 22912,1614 "/>
     <polygon class="fil3" points="24371,1845 24371,1768 24218,1768 24218,1845 "/>
     <polygon class="fil4" points="23373,1691 23296,1691 23296,1768 23373,1768 "/>
     <polygon class="fil4" points="23527,923 23527,1000 23604,1000 23603,923 "/>
     <polygon class="fil4" points="24295,2075 24371,2075 24371,1998 24295,1998 "/>
     <polygon class="fil4" points="23834,2382 23911,2382 23911,2305 23834,2305 "/>
     <polygon class="fil4" points="23527,1614 23527,1691 23603,1691 23603,1614 "/>
     <polygon class="fil4" points="23373,1461 23450,1461 23450,1384 23373,1384 "/>
     <polygon class="fil4" points="23987,1845 24064,1845 24064,1768 23987,1768 "/>
     <polygon class="fil4" points="23296,1921 23219,1921 23219,1998 23296,1998 "/>
     <polygon class="fil4" points="23987,1845 23911,1845 23911,1921 23987,1921 "/>
     <polygon class="fil4" points="23680,1845 23757,1845 23757,1768 23680,1768 "/>
     <polygon class="fil4" points="23296,1921 23373,1921 23373,1845 23296,1845 "/>
     <polygon class="fil3" points="23680,1307 23757,1307 23757,1230 23680,1230 "/>
     <polygon class="fil3" points="24371,1384 24295,1384 24295,1461 24371,1461 "/>
     <polygon class="fil3" points="22605,1845 22528,1845 22528,1921 22605,1921 "/>
     <polygon class="fil3" points="23219,769 23219,693 23143,693 23143,769 "/>
     <polygon class="fil3" points="23757,1230 23834,1230 23834,1153 23757,1153 "/>
     <polygon class="fil3" points="23066,1384 23066,1307 22989,1307 22989,1384 "/>
     <polygon class="fil3" points="23680,1230 23680,1153 23603,1153 23603,1230 "/>
     <polygon class="fil3" points="22989,1998 23066,1998 23066,1921 22989,1921 "/>
     <polygon class="fil3" points="23143,1230 23219,1230 23219,1153 23143,1153 "/>
     <polygon class="fil3" points="24371,1384 24448,1384 24448,1307 24371,1307 "/>
     <polygon class="fil3" points="23911,2152 23987,2152 23987,2075 23911,2075 "/>
     <polygon class="fil3" points="23373,2229 23450,2229 23450,2152 23373,2152 "/>
     <polygon class="fil3" points="23834,1384 23911,1384 23911,1307 23834,1307 "/>
     <polygon class="fil3" points="23450,1921 23450,1998 23526,1998 23527,1921 "/>
    </g>
   </g>
  </g>
  <g style="clip-path:url(#id0)">
   <image x="9303" y="2759" width="6568" height="5298" xlink:href="ticket_bg_cdr_Images\ticket_bg_cdr_ImgID1.png"/>
  </g>
 </g>
</svg>
