<?xml version="1.0" encoding="UTF-8"?>
<!DOCTYPE svg PUBLIC "-//W3C//DTD SVG 1.1//EN" "http://www.w3.org/Graphics/SVG/1.1/DTD/svg11.dtd">
<!-- Creator: CorelDRAW X7 -->
<svg xmlns="http://www.w3.org/2000/svg" xml:space="preserve" width="20mm" height="20mm" version="1.1" style="shape-rendering:geometricPrecision; text-rendering:geometricPrecision; image-rendering:optimizeQuality; fill-rule:evenodd; clip-rule:evenodd"
viewBox="0 0 2000 2000"
 xmlns:xlink="http://www.w3.org/1999/xlink">
 <defs>
  <style type="text/css">
   <![CDATA[
    .fil0 {fill:#D41111}
   ]]>
  </style>
 </defs>
 <g id="Layer_x0020_1">
  <metadata id="CorelCorpID_0Corel-Layer"/>
  <path class="fil0" d="M68 1305c-2,56 117,159 135,170 33,-9 176,-112 305,17 126,128 33,261 17,305 14,23 57,63 79,84 32,31 50,56 117,51 15,-21 37,-35 57,-53l887 -880c-19,-45 -61,-47 -24,-84 35,-38 50,8 84,23l161 -163c15,-17 30,-41 46,-55 6,-74 -79,-162 -135,-195 -64,18 -72,50 -166,44 -61,-5 -102,-32 -134,-66 -125,-130 -43,-236 -22,-300 -13,-26 -114,-138 -170,-136 -44,9 -50,26 -77,50 -22,19 -34,34 -55,54 -29,26 -94,86 -110,118 34,24 51,35 37,85 -51,12 -61,-11 -87,-36 -32,16 -203,194 -241,234 -137,145 -343,332 -476,475 -39,43 -80,79 -120,122 -48,53 -103,94 -108,136zm1215 -768c-17,8 -21,-3 -24,26 -1,10 7,26 12,32 10,15 37,39 62,28 51,-22 -8,-107 -50,-86zm-56 -53c2,-48 -26,-83 -78,-69 -16,27 -14,49 9,69 28,25 44,19 69,0zm235 251c39,-40 -19,-81 -61,-77 -18,22 -32,29 -5,63 15,21 39,40 66,14zm130 130c9,-32 13,-39 -14,-67 -13,-13 -42,-31 -64,-10 -26,26 7,94 78,77z"/>
 </g>
</svg>
